<svg xmlns="http://www.w3.org/2000/svg" xmlns:xlink="http://www.w3.org/1999/xlink" viewBox="0 0 143.61 95.73"><defs><style>.cls-1{fill:url(#linear-gradient);}.cls-2{fill:url(#linear-gradient-2);}.cls-3{fill:url(#linear-gradient-3);}.cls-4{fill:url(#linear-gradient-4);}.cls-5{fill:url(#linear-gradient-5);}.cls-6{fill:url(#linear-gradient-6);}.cls-7{fill:url(#Áåçûìÿííûé_ãðàäèåíò_40);}</style><linearGradient id="linear-gradient" x1="65.01" y1="-2.55" x2="65.01" y2="10.74" gradientUnits="userSpaceOnUse"><stop offset="0" stop-color="#c4912c"></stop><stop offset="0.49" stop-color="#e9c953"></stop><stop offset="1" stop-color="#c4912c"></stop></linearGradient><linearGradient id="linear-gradient-2" x1="65.01" y1="41.29" x2="65.01" y2="6.77" xlink:href="#linear-gradient"></linearGradient><linearGradient id="linear-gradient-3" x1="27.88" y1="54.99" x2="27.88" y2="7.2" xlink:href="#linear-gradient"></linearGradient><linearGradient id="linear-gradient-4" x1="94.3" y1="60.47" x2="94.3" y2="3.89" xlink:href="#linear-gradient"></linearGradient><linearGradient id="linear-gradient-5" x1="130.27" y1="60.47" x2="130.27" y2="3.89" xlink:href="#linear-gradient"></linearGradient><linearGradient id="linear-gradient-6" x1="61.07" y1="98.6" x2="61.07" y2="26.74" xlink:href="#linear-gradient"></linearGradient><linearGradient id="&#xC1;&#xE5;&#xE7;&#xFB;&#xEC;&#xFF;&#xED;&#xED;&#xFB;&#xE9;_&#xE3;&#xF0;&#xE0;&#xE4;&#xE8;&#xE5;&#xED;&#xF2;_40" x1="58.32" y1="100.62" x2="58.32" y2="-4.42" gradientUnits="userSpaceOnUse"><stop offset="0" stop-color="#e9c953"></stop><stop offset="0.28" stop-color="#c4912c"></stop><stop offset="0.53" stop-color="#e9c953"></stop><stop offset="0.75" stop-color="#c4912c"></stop><stop offset="1" stop-color="#e9c953"></stop></linearGradient></defs><g id="Layer_2" data-name="Layer 2"><g id="Layer_1-2" data-name="Layer 1"><path class="cls-1" d="M62.43,4c0-1.13,0-2.27,0-3.44A.58.58,0,0,1,63,0h4a.58.58,0,0,1,.58.58c0,1.16,0,2.3,0,3.44Z"></path><path class="cls-2" d="M71.7,25.21h0v2.85A6.39,6.39,0,0,0,70.63,28a11.94,11.94,0,0,0-4.55.95,19,19,0,0,0-7.75,6.56V28.18c0-.52,0-1.91,0-3,0-.48,0-.9,0-1.15,0-2.89.24-5.61,2.81-7.73.89-.73,1.19-2.53,1.24-3.87.09-2.18.1-4.36.08-6.6h5.13c0,2.12,0,4.22.08,6.31.06,1.45.36,3.36,1.31,4.21,2.35,2.08,2.78,4.6,2.75,7.39C71.71,24,71.7,24.47,71.7,25.21Z"></path><path class="cls-3" d="M50.78,13.75,42.63,37.89A29.74,29.74,0,0,1,47,36.55a11.64,11.64,0,0,1,1.25-.21l7.55-22.59ZM40.57,49.55a5.31,5.31,0,0,0-.2,1h3.11L46,43.12a8.27,8.27,0,0,0-1.41.74A9.53,9.53,0,0,0,40.57,49.55ZM25.68,13.75,15.34,43.63,5.41,13.75H0L12.29,50.51H17.9l10-29.35,7.37,21.58a17.33,17.33,0,0,1,3.08-2.62c.27-.19.54-.37.83-.54L30.51,13.75Z"></path><path class="cls-4" d="M110.1,13.75V50.51h-4.3L83.74,23.1V50.51H78.49V13.75H82.8l22,27.41V13.75Z"></path><path class="cls-5" d="M143.61,45.94v4.57H116.93V13.75h25.94v4.57H122.18V29.61h18.44v4.46H122.18V45.94Z"></path><path class="cls-6" d="M100.91,68.34h0c-.26-.06-.49.22-.62.46a42.66,42.66,0,0,1-4.68,7.84,5.6,5.6,0,0,1-2.11,1.7A2.44,2.44,0,0,1,90.9,78a2.83,2.83,0,0,1-.71-1.29,8.59,8.59,0,0,1,.06-4.87,18.46,18.46,0,0,1,2.07-4.46,24.17,24.17,0,0,1,3.84-5,1.67,1.67,0,0,0,1.91.91,2.56,2.56,0,0,0,1.67-1.48,1.53,1.53,0,0,0,.1-1.33A1.28,1.28,0,0,0,99.3,60a2.33,2.33,0,0,0-2,0,5.49,5.49,0,0,0-1.65,1.27A30.83,30.83,0,0,0,90.88,68,23.54,23.54,0,0,0,91.21,64a3.46,3.46,0,0,0-2-3.1,3.25,3.25,0,0,0-2.62.41c-1.68,1-2.6,2.68-3.49,4.33-1.63,3-3.11,6.17-5,9-.93,1.39-2.44,3.66-4.35,3.66-.84-.07-1.25-.72-1.25-1.93,0-2.36,1.34-4.89,2.28-7q1.14-2.59,2.5-5.07a11.89,11.89,0,0,1,3.1-4H77.27a2.27,2.27,0,0,0-2.21,1.19Q69.62,72.8,66.61,76.31c-1.28,1.51-2.28,2.27-3,2.27a1.43,1.43,0,0,1-1.16-.51A2.75,2.75,0,0,1,62,76.31a9.58,9.58,0,0,1,1.14-3.65q1.13-2.41,3.2-6.63t4.11-5.7H67c-1.1,0-1.82,1.2-2.2,2-.21.45-.43.89-.65,1.33-1.11,2.26-2.21,4.52-3.24,6.81a17.87,17.87,0,0,0-1.86,5.09,4.89,4.89,0,0,0,0,1.43c-4.2-2.19-8.8-3.5-13.3-5a102.43,102.43,0,0,0,5.58-10.57,1.83,1.83,0,0,1,.48-.71,1.64,1.64,0,0,1,.52-.24c2.09-.72,4.21-1.38,6.28-2.15a23.44,23.44,0,0,0,4.94-3A30.68,30.68,0,0,0,72.45,46a20.28,20.28,0,0,0,3.2-10.31c0-.42,0-.85-.05-1.31a3.6,3.6,0,0,0-1.68-2.69,5.62,5.62,0,0,0-3.28-1.1,9.31,9.31,0,0,0-3.54.73q-6.91,3-11.9,15.76L50.38,59.19a24.81,24.81,0,0,1-3.09.17,14.67,14.67,0,0,1-3.91-.62,6.91,6.91,0,0,1-3.54-2.18,8.05,8.05,0,0,1-1.7-3,9.77,9.77,0,0,1-.4-2.53,7.88,7.88,0,0,1,.34-2.18,12.19,12.19,0,0,1,5.05-7.14A10.47,10.47,0,0,1,47.66,40,6.3,6.3,0,0,0,49,39.7c.38-.15.53-.32.46-.51s-.29-.28-.63-.28a5.27,5.27,0,0,0-1.24.17,22.21,22.21,0,0,0-7.68,3.17A10.61,10.61,0,0,0,36,46.39a9.55,9.55,0,0,0-.88,3.79,8.78,8.78,0,0,0,2.38,6,12.34,12.34,0,0,0,4.87,3.23A18.2,18.2,0,0,0,49,60.61h.63a112,112,0,0,1-6,10.94,28,28,0,0,0-5.33-.46q-8.22,0-13,2.84C22.44,75.55,21,77.44,21,79.59a5.11,5.11,0,0,0,3.23,4.82,9.2,9.2,0,0,0,4.27,1,12.84,12.84,0,0,0,5.53-1.53q5.2-2.49,10-9.23c3.13.6,5.64,1.14,7.51,1.61a44.09,44.09,0,0,1,6.63,2.38c3.36,1.47,6.55,3.32,8.38,6.63a9.91,9.91,0,0,1,.3,9.32c-.2.38-.38.94,0,1.13a.71.71,0,0,0,.57,0,4.67,4.67,0,0,0,2.59-3.49,8.5,8.5,0,0,0-.54-4.45,18.47,18.47,0,0,0-6.14-8q3.26-.58,7-7.19a11.82,11.82,0,0,0-.57,3.23,6,6,0,0,0,.34,2.16,2.91,2.91,0,0,0,2.92,1.87c1.42,0,2.86-.83,4.34-2.5,3-3.35,4.51-7.92,6.69-11.77A10.21,10.21,0,0,1,86,63c.48-.45,1.21-.83,1.77-.47a1.64,1.64,0,0,1,.53,1.41,19.82,19.82,0,0,1-2.88,9.76,23.27,23.27,0,0,1-3.63,5.1,6.1,6.1,0,0,1-2,1.47,2.73,2.73,0,0,1-2.4-.09,1.26,1.26,0,0,0-.55-.26.65.65,0,0,0-.59.79,1.3,1.3,0,0,0,.75.82c1.35.67,3,.12,4.24-.73C83.9,79,85.52,76,87.05,73.16a9.18,9.18,0,0,0,.31,3.58,4.5,4.5,0,0,0,2.24,2.73,4.32,4.32,0,0,0,2.56.29c2.62-.43,4.58-2.63,6-4.9A51.58,51.58,0,0,0,101,69.21C101.13,68.91,101.21,68.46,100.91,68.34Zm-42.85-20a60.25,60.25,0,0,1,6.2-9.72q4.14-5,7-5c1.32,0,2,.72,2,2.15q0,7.6-6.32,14.48a27.18,27.18,0,0,1-14.19,8.64Q55.09,54,58.06,48.34ZM33.15,82.26a13.64,13.64,0,0,1-5.78,1.47,6.9,6.9,0,0,1-3.54-.94,2.73,2.73,0,0,1-1.61-2.4,2.93,2.93,0,0,1,.22-1.08q1.14-3.12,7.65-4.82a23.31,23.31,0,0,1,6.07-.85,25.78,25.78,0,0,1,5.72.63A23.59,23.59,0,0,1,33.15,82.26Z"></path><path class="cls-7" d="M58.32,25.21c0,1.06,0,2.45,0,3l0-3Z"></path></g></g></svg>